<svg id="a" xmlns="http://www.w3.org/2000/svg" viewBox="0 0 30 32">
    <path
        d="M13.6,.42c.85-.56,1.95-.56,2.8,0l12.44,8.16c.72,.47,1.16,1.28,1.16,2.14v10.57c0,.86-.43,1.67-1.16,2.14l-12.44,8.16c-.85,.56-1.95,.56-2.8,0L1.16,23.42c-.72-.47-1.16-1.28-1.16-2.14V10.71c0-.86,.43-1.67,1.16-2.14L13.6,.42Z"
        style="fill:#2171f2;"
    />
    <path
        d="M16,10v1H8c-.55,0-1,.45-1,1v4h-.67c-.18,0-.33,.15-.33,.33v3.33c0,.18,.15,.33,.33,.33h.67v2c0,.55,.45,1,1,1h14c.55,0,1-.45,1-1v-2h.67c.18,0,.33-.15,.33-.33v-3.33c0-.18-.15-.33-.33-.33h-.67v-4c0-.55-.45-1-1-1h-5v-3.67c0-.18-.15-.33-.33-.33h-2.33c-.18,0-.33,.15-.33,.33v2.33c0,.18,.15,.33,.33,.33h1.67Z"
        style="fill:#fff;"
    />
    <path
        d="M20.38,16.79l-2.09,2.09c-.16,.16-.42,.16-.57,0l-1.26-1.26c-.16-.16-.16-.42,0-.57l.43-.43c.16-.16,.42-.16,.57,0l.55,.55,1.38-1.38c.16-.16,.42-.16,.57,0l.43,.43c.16,.16,.16,.42,0,.57h0Z"
        style="fill:#2171f2;"
    />
    <path
        d="M11.62,18.88c-.16,.16-.42,.16-.57,0l-1.26-1.26c-.16-.16-.16-.42,0-.57l.43-.43c.16-.16,.41-.16,.57,0l.55,.55,1.38-1.38c.16-.16,.41-.16,.57,0l.43,.43c.16,.16,.16,.41,0,.57l-2.09,2.09Z"
        style="fill:#2171f2;"
    />
</svg>
