<svg id="a" xmlns="http://www.w3.org/2000/svg" xmlns:xlink="http://www.w3.org/1999/xlink" viewBox="0 0 426.38 269.81">
    <defs>
        <style>.c{mask:url(#b);}.d{fill:#fff;}.e{fill:#222221;}.f{fill:#222220;}.g{fill:#212120;}</style>
        <mask id="b" x="-24.08" y="-24.97" width="555.59" height="340.42" maskUnits="userSpaceOnUse">
            <g>
                <rect x="-24.08" y="-24.97" width="555.59" height="340.42" style="fill:#fff;" />
                <path
                    d="M213.3,150.78c5.49,0,10.98-.11,16.47,.03,8.12,.21,14.04,6.09,14.06,13.78,.02,7.63-5.87,13.79-13.95,13.96-11.14,.23-22.29,.27-33.43,.02-8.3-.18-14.4-6.71-14.09-14.39,.3-7.67,6.27-13.19,14.47-13.39,.33,0,.67,0,1,0h15.47Z"
                />
                <path
                    d="M388.15,210.6c-5.33,0-10.65,.12-15.97-.03-8.81-.25-14.65-6.17-14.42-14.42,.22-7.97,6.11-13.34,14.83-13.39,10.65-.06,21.3-.08,31.95,.02,8.49,.08,14.5,5.9,14.49,13.8-.01,7.89-6.01,13.8-14.41,14.01-5.49,.14-10.98,.03-16.47,.03v-.02h0Z"
                />
                <path
                    d="M37.87,210.63c-5.32,0-10.65,.09-15.97-.02-8.68-.18-14.79-6.17-14.69-14.24,.1-7.83,6.18-13.53,14.71-13.59,10.65-.08,21.3-.08,31.95,0,8.64,.06,14.52,5.61,14.62,13.59,.1,8.06-5.59,13.89-14.14,14.19-5.48,.19-10.98,.04-16.47,.04v.04h0Z"
                />
                <path
                    d="M301.04,182.78c5.65,0,11.32-.16,16.96,.04,7.42,.26,12.91,5.71,13.29,12.86,.4,7.56-4.39,14.21-11.93,14.58-12.27,.61-24.62,.66-36.89,.1-7.78-.36-12.83-7.18-12.37-14.79,.43-7.19,6.27-12.62,13.97-12.79,5.65-.13,11.31-.02,16.96-.02v.03h0Z"
                />
                <path
                    d="M125.65,107.97c5.33,0,10.66-.07,15.99,0,8.41,.13,14.46,5.97,14.51,13.88,.04,7.96-5.97,13.98-14.3,14.06-10.82,.1-21.65,.1-32.48,0-8.48-.07-14.44-5.88-14.48-13.87-.04-8.02,5.89-13.92,14.27-14.07,5.49-.1,10.99-.02,16.49-.02h0v.02Z"
                />
            </g>
        </mask>
    </defs>
    <g style="mask:url(#b);">
        <g>
            <path
                d="M206.2,71.95c0-22.49,.09-44.97-.09-67.46-.03-3.64,1.12-4.4,4.52-4.34,9.39,.17,9.4,.01,9.4,9.33,0,42.97,.05,85.94-.08,128.92,0,3.74,.71,5.25,4.8,5,3.77-.23,7.75-.03,11.37,.97,9.76,2.7,16.02,12.53,14.94,22.63-1.05,9.91-9.48,18.03-19.58,18.87-.5,.04-1,.04-1.5,.05-6.65,.2-9.97,3.56-9.96,10.07,0,22.99-.07,45.97,.09,68.95,.02,3.5-.46,4.96-4.5,4.84-9.36-.29-9.39-.04-9.4-9.35,0-23.32-.09-46.64,.09-69.95,.03-3.66-.73-4.92-4.57-4.66-3.59,.24-7.37,0-10.86-.86-10.07-2.52-16.39-11.63-15.74-21.98,.6-9.59,8.08-17.75,17.93-19.26,3.1-.47,6.33-.6,9.45-.36,3.26,.26,3.78-1.02,3.76-3.95-.12-22.48-.06-44.97-.06-67.46h0Z"
                style="fill:#222221;"
            />
            <path
                d="M381.47,87.8c0-27.65,.08-55.31-.09-82.96-.02-3.78,1.02-4.78,4.74-4.7,9.05,.2,9.04,0,9.03,9.26-.02,53.64,.04,107.28-.15,160.92-.02,4.36,1.28,5.09,5.26,5.03,13.37-.22,21.08,4.23,24.69,13.64,5.21,13.59-4.4,28.17-19.06,28.9-3.45,.17-8.54-.99-9.95,.78-1.82,2.29-.79,6.91-.81,10.53-.04,11.99-.1,23.99,.06,35.98,.04,3.23-.5,4.65-4.25,4.59-9.48-.15-9.48,.06-9.48-9.37,0-12.83-.14-25.66,.05-38.48,.05-3.3-.89-4.31-4.13-4.09-3.13,.21-6.38,.23-9.45-.35-10.68-2.01-18.11-11.28-17.66-21.6,.47-10.58,8.31-18.99,19.07-20.41,1.32-.17,2.66-.19,3.99-.21,8.15-.11,8.12-.1,8.11-8.5-.01-26.32,0-52.64,0-78.96h.03Z"
                style="fill:#222220;"
            />
            <path
                d="M31.12,87.98c0-27.65,.09-55.3-.1-82.95-.03-4.02,1.12-4.98,4.98-4.87,8.77,.25,8.77,.04,8.77,9.05,0,53.3,.07,106.61-.11,159.91-.02,4.83,.83,6.85,6.12,6.25,6.27-.72,12.27,.62,17.33,4.79,6.76,5.58,9.48,14.75,6.83,22.97-2.68,8.33-10.51,14.27-19.45,14.75-3.46,.19-8.57-.94-9.96,.84-1.8,2.32-.73,6.94-.75,10.57-.04,12.16-.11,24.32,.05,36.48,.04,3.03-.8,3.96-3.92,3.98-9.85,.07-9.83,.21-9.81-9.44,.02-12.66-.19-25.32,.12-37.98,.1-3.98-1.24-4.53-4.75-4.55-4.42-.02-9.09-.21-13.2-1.63-9.21-3.17-14.11-12.07-13.15-22.23,.84-8.94,8.02-16.49,17.27-18.15,.98-.18,1.97-.35,2.96-.44,3.54-.33,8.64,.65,10.21-1.27,1.81-2.21,.54-6.98,.54-10.63,.01-25.15,0-50.31,0-75.46h.02Z"
                style="fill:#222220;"
            />
            <path
                d="M307.56,88.06c0,27.31,.12,54.62-.12,81.92-.04,4.57,1.35,5.68,5.6,5.35,8.78-.69,16.64,1.49,21.86,9.19,4.64,6.85,5.27,14.25,1.43,21.72-3.82,7.45-10.16,11.12-18.44,11.67-3.39,.22-7.91-.66-9.81,1.16-1.69,1.62-.51,6.28-.52,9.59-.02,12.16-.11,24.31,.05,36.47,.04,3.26-.53,4.71-4.28,4.65-9.37-.15-9.38,.04-9.38-9.39,0-12.82-.13-25.65,.08-38.46,.05-3.35-.92-4.33-4.15-4.07-2.97,.24-6.03,.24-8.97-.21-10.93-1.71-18.35-10.72-18.09-21.63,.26-10.66,7.92-19.06,18.76-20.54,.66-.09,1.33-.1,1.99-.16,3.39-.28,8.23,.66,9.78-1.18,1.75-2.06,.59-6.64,.59-10.12,.01-52.62,.07-105.24-.11-157.86-.02-4.64,.84-6.9,5.84-5.94,.96,.18,2.01,.15,2.99,0,3.95-.62,5,.98,4.98,4.92-.17,27.64-.09,55.28-.09,82.92h0Z"
                style="fill:#212120;"
            />
            <path
                d="M118.67,206.85c0-19.65-.12-39.3,.09-58.94,.04-4.01-1.19-5.05-5.03-4.87-3.77,.17-7.74,.05-11.32-.99-9.91-2.86-16.27-12.94-14.81-22.59,1.64-10.86,9.94-18.35,20.69-18.66,6.93-.2,10.39-3.8,10.38-10.81,0-28.14,.11-56.28-.11-84.42-.04-4.52,1.27-5.61,5.58-5.43,8.13,.32,8.14,.07,8.14,8.13,0,29.3,.07,58.61-.09,87.91-.02,3.72,.87,4.88,4.67,4.7,3.93-.18,8.07-.04,11.82,1.02,10.3,2.9,16,12.57,14.51,23.63-1.29,9.6-9.92,17.17-20.02,17.57-7.27,.29-10.91,4.05-10.9,11.3,0,36.63-.08,73.26,.1,109.89,.02,4.29-.84,5.72-5.39,5.5-8.27-.4-8.3-.09-8.31-8.5v-54.45h0Z"
                style="fill:#212120;"
            />
        </g>
    </g>
</svg>
