<svg viewBox="0 0 96.02 123.68" xmlns="http://www.w3.org/2000/svg">
    <path
        d="M957,576l-48,0q.11-29.45.2-58.9L957,476.32l47.83,40.81c0,3.62.09,7.25.14,10.87l-24-.2-24-20-23.78,20.41q-.11,11.88-.19,23.76h24V576Z"
        fill="#000"
        transform="translate(-909 -476.32)"
    />
    <path
        d="M957,576h11.74A12,12,0,0,0,981,563.66V552.09h23.85c0,.06.12.13.12.2-.13,6.35.51,12.73-.71,19.05-2.74,14.2-15.13,26.11-29.42,28.16A37.4,37.4,0,0,1,970,600c-4.28.06-8.56,0-13,0V576Z"
        fill="#000"
        transform="translate(-909 -476.32)"
    />
</svg>
